<svg width="178" height="59" viewBox="0 0 178 59" fill="none" xmlns="http://www.w3.org/2000/svg">
<path d="M22.4199 2.1167C21.873 2.1167 21.4629 2.15658 21.1895 2.23633V0.715332H22.9668C25.9632 0.715332 28.2191 1.2793 29.7344 2.40723C31.1243 3.43262 31.8193 4.86247 31.8193 6.69678C31.8193 8.15511 31.2839 9.37419 30.2129 10.354C29.1533 11.3224 27.7178 11.9092 25.9062 12.1143V12.1826C29.29 12.6383 31.4889 13.8574 32.5029 15.8398C32.8789 16.5462 33.0669 17.3779 33.0669 18.335C33.0669 19.2806 32.9017 20.1579 32.5713 20.9668C32.2409 21.7757 31.7282 22.4821 31.0332 23.0859C29.5407 24.362 27.3703 25 24.522 25H21.1895V23.4961C21.4401 23.5645 21.9528 23.5986 22.7275 23.5986C24.6986 23.5986 26.1455 23.1999 27.0684 22.4023C27.9912 21.6048 28.4526 20.3231 28.4526 18.5571C28.4526 16.7912 27.9513 15.4354 26.9487 14.4897C25.9575 13.5441 24.4479 13.0713 22.4199 13.0713H21.1895V11.5674H21.8389C25.4049 11.5674 27.188 9.95524 27.188 6.73096C27.188 3.65479 25.5986 2.1167 22.4199 2.1167ZM19.771 25H13.123V23.9917C13.4307 23.855 13.7269 23.7467 14.0117 23.667C14.3079 23.5872 14.57 23.4847 14.7979 23.3594C15.2764 23.0859 15.5156 22.5846 15.5156 21.8555V3.85986C15.5156 3.1307 15.2764 2.62939 14.7979 2.35596C14.57 2.23063 14.3079 2.12809 14.0117 2.04834C13.7269 1.96859 13.4307 1.86035 13.123 1.72363V0.715332H19.771V25ZM44.1924 15.481V17.7539H35.938V15.481H44.1924ZM55.6426 0.236816C56.4857 0.316569 57.2035 0.510254 57.7959 0.817871C58.3997 1.12549 58.8099 1.34196 59.0264 1.46729C59.2542 1.59261 59.4422 1.65527 59.5903 1.65527C59.7498 1.65527 59.8809 1.62109 59.9834 1.55273C60.0859 1.48438 60.1771 1.40462 60.2568 1.31348C60.3366 1.22233 60.4049 1.12549 60.4619 1.02295C60.5189 0.909017 60.5758 0.806478 60.6328 0.715332H62.2051V8.73047H60.9746C60.724 8.46842 60.4391 7.89876 60.1201 7.02148C59.8011 6.13281 59.5277 5.42643 59.2998 4.90234C59.0833 4.37826 58.8099 3.88835 58.4795 3.43262C57.7503 2.41862 56.8047 1.82048 55.6426 1.63818V0.236816ZM52.1733 24.9146C51.5011 24.6069 51.0283 24.3905 50.7549 24.2651C50.4814 24.1284 50.1966 24.0601 49.9004 24.0601C49.6156 24.0601 49.2965 24.3734 48.9434 25H47.354V16.5576H48.5332C48.7839 16.8197 49.006 17.1785 49.1997 17.6343C49.4048 18.09 49.6156 18.5856 49.832 19.1211C50.0599 19.6452 50.3049 20.1864 50.5669 20.7446C50.8289 21.3029 51.1479 21.8213 51.5239 22.2998C52.367 23.3594 53.438 23.9575 54.7368 24.0942V25.4956C53.7114 25.4045 52.8569 25.2108 52.1733 24.9146ZM56.1553 24.0771C57.3857 23.929 58.3371 23.4277 59.0093 22.5732C59.6017 21.8099 59.8979 20.9383 59.8979 19.9585C59.8979 18.9673 59.7214 18.1755 59.3682 17.583C59.015 16.9792 58.5479 16.4494 57.9668 15.9937C57.3971 15.5265 56.742 15.105 56.0015 14.729C55.2609 14.353 54.5033 13.9827 53.7285 13.6182C52.9652 13.2422 52.2132 12.8548 51.4727 12.4561C50.7435 12.0459 50.0941 11.5788 49.5244 11.0547C48.237 9.86979 47.5933 8.42855 47.5933 6.73096C47.5933 5.01058 48.18 3.54085 49.3535 2.32178C50.6068 1.04574 52.2303 0.339355 54.2241 0.202637V1.62109C52.8114 1.80339 51.86 2.52686 51.3701 3.7915C51.2106 4.20166 51.1309 4.71436 51.1309 5.32959C51.1309 5.94482 51.3132 6.52018 51.6777 7.05566C52.0423 7.59115 52.5208 8.06966 53.1133 8.49121C53.7057 8.91276 54.3779 9.30013 55.1299 9.65332C55.8932 10.0065 56.668 10.3654 57.4541 10.73C58.2516 11.0946 59.0264 11.4876 59.7783 11.9092C60.5417 12.3307 61.2196 12.8206 61.812 13.3789C63.1336 14.6436 63.7944 16.1702 63.7944 17.959C63.7944 19.8958 63.0938 21.582 61.6924 23.0176C60.2227 24.5443 58.377 25.376 56.1553 25.5127V24.0771ZM76.8853 25.5127C73.9686 25.3076 71.5589 23.986 69.6562 21.5479C67.8105 19.1781 66.8877 16.2785 66.8877 12.8491C66.8877 9.44255 67.8105 6.55436 69.6562 4.18457C71.5589 1.74642 73.9686 0.424805 76.8853 0.219727V1.62109C75.2104 1.79199 73.9515 2.68066 73.1084 4.28711C72.1628 6.13281 71.6899 8.98682 71.6899 12.8491C71.6899 18.5229 72.7096 22.0264 74.749 23.3594C75.387 23.7695 76.0991 24.0145 76.8853 24.0942V25.5127ZM78.3037 24.0942C80.8558 23.8322 82.4622 21.7985 83.123 17.9932C83.3737 16.5918 83.499 14.8771 83.499 12.8491C83.499 7.19808 82.4793 3.70605 80.4399 2.37305C79.8019 1.96289 79.0898 1.71224 78.3037 1.62109V0.202637C81.2432 0.407715 83.6585 1.72363 85.5498 4.15039C87.4069 6.53158 88.3354 9.43115 88.3354 12.8491C88.3354 16.2671 87.4069 19.1667 85.5498 21.5479C83.6585 23.9746 81.2432 25.2905 78.3037 25.4956V24.0942ZM103.409 24.1113C105.801 24.0088 107.368 23.0745 108.108 21.3086C108.359 20.7275 108.484 20.0553 108.484 19.292V4.06494C108.484 3.1193 107.926 2.4585 106.81 2.08252C106.502 1.97998 106.194 1.86035 105.887 1.72363V0.715332H113.064V1.72363C112.757 1.86035 112.444 1.97998 112.125 2.08252C111.817 2.18506 111.538 2.31608 111.287 2.47559C110.717 2.81738 110.433 3.34717 110.433 4.06494V18.7622C110.433 22.9093 108.091 25.1481 103.409 25.4785V24.1113ZM101.99 25.5298C97.7292 25.5298 95.0176 24.2025 93.8555 21.5479C93.4681 20.6706 93.2744 19.6623 93.2744 18.5229V3.85986C93.2744 3.1307 93.0522 2.62939 92.6079 2.35596C92.4028 2.23063 92.1579 2.12809 91.873 2.04834C91.5882 1.96859 91.2806 1.86035 90.9502 1.72363V0.715332H99.8882V1.72363C99.5464 1.86035 99.2331 1.96859 98.9482 2.04834C98.6634 2.12809 98.4128 2.23063 98.1963 2.35596C97.752 2.618 97.5298 3.1193 97.5298 3.85986V19.3262C97.5298 20.6592 97.9342 21.7529 98.7432 22.6074C99.5179 23.4277 100.6 23.9176 101.99 24.0771V25.5298ZM132.701 15.9082V3.85986C132.701 3.24463 132.416 2.77181 131.846 2.44141C131.596 2.30469 131.311 2.17936 130.992 2.06543C130.684 1.9515 130.376 1.82617 130.069 1.68945V0.681152H137.212V1.68945C136.928 1.82617 136.631 1.9515 136.324 2.06543C136.028 2.17936 135.76 2.30469 135.521 2.44141C134.951 2.77181 134.666 3.24463 134.666 3.85986V18.9844L132.701 15.9082ZM119.456 6.85059V21.8213C119.456 22.4479 119.752 22.915 120.345 23.2227C120.607 23.3708 120.909 23.5018 121.25 23.6157C121.604 23.7297 121.963 23.855 122.327 23.9917V25H114.808V23.9917C115.127 23.855 115.446 23.7297 115.765 23.6157C116.084 23.5018 116.368 23.3708 116.619 23.2227C117.2 22.9036 117.491 22.4365 117.491 21.8213V4.28711L119.456 6.85059ZM119.524 4.73145C118.305 3.2959 117.086 2.39583 115.867 2.03125C115.548 1.92871 115.235 1.82617 114.927 1.72363V0.715332H121.592L134.666 21.394V25.1367H132.154L119.524 4.73145ZM152.439 2.50977C151.551 2.16797 150.679 1.99707 149.825 1.99707C148.982 1.99707 148.406 2.02555 148.099 2.08252V0.715332H149.773C153.419 0.715332 156.285 1.84326 158.37 4.09912C160.398 6.28662 161.412 9.20329 161.412 12.8491C161.412 16.5063 160.398 19.4287 158.37 21.6162C156.285 23.8721 153.419 25 149.773 25H148.099V23.6157C148.554 23.6727 149.17 23.7012 149.944 23.7012C150.719 23.7012 151.551 23.5303 152.439 23.1885C153.34 22.8353 154.097 22.2428 154.712 21.4111C155.966 19.7021 156.592 16.8481 156.592 12.8491C156.592 7.03857 155.208 3.59212 152.439 2.50977ZM146.68 25H139.759V23.9917C140.066 23.855 140.363 23.7467 140.647 23.667C140.944 23.5872 141.206 23.4847 141.434 23.3594C141.912 23.0859 142.151 22.5846 142.151 21.8555V3.85986C142.151 3.1307 141.912 2.62939 141.434 2.35596C141.206 2.23063 140.944 2.12809 140.647 2.04834C140.363 1.96859 140.066 1.86035 139.759 1.72363V0.715332H146.68V25ZM6.25 41.0195C6.82812 41.0742 7.32031 41.207 7.72656 41.418C8.14062 41.6289 8.42188 41.7773 8.57031 41.8633C8.72656 41.9492 8.85547 41.9922 8.95703 41.9922C9.06641 41.9922 9.15625 41.9688 9.22656 41.9219C9.29688 41.875 9.35938 41.8203 9.41406 41.7578C9.46875 41.6953 9.51562 41.6289 9.55469 41.5586C9.59375 41.4805 9.63281 41.4102 9.67188 41.3477H10.75V46.8438H9.90625C9.73438 46.6641 9.53906 46.2734 9.32031 45.6719C9.10156 45.0625 8.91406 44.5781 8.75781 44.2188C8.60938 43.8594 8.42188 43.5234 8.19531 43.2109C7.69531 42.5156 7.04688 42.1055 6.25 41.9805V41.0195ZM3.87109 57.9414C3.41016 57.7305 3.08594 57.582 2.89844 57.4961C2.71094 57.4023 2.51562 57.3555 2.3125 57.3555C2.11719 57.3555 1.89844 57.5703 1.65625 58H0.566406V52.2109H1.375C1.54688 52.3906 1.69922 52.6367 1.83203 52.9492C1.97266 53.2617 2.11719 53.6016 2.26562 53.9688C2.42188 54.3281 2.58984 54.6992 2.76953 55.082C2.94922 55.4648 3.16797 55.8203 3.42578 56.1484C4.00391 56.875 4.73828 57.2852 5.62891 57.3789V58.3398C4.92578 58.2773 4.33984 58.1445 3.87109 57.9414ZM6.60156 57.3672C7.44531 57.2656 8.09766 56.9219 8.55859 56.3359C8.96484 55.8125 9.16797 55.2148 9.16797 54.543C9.16797 53.8633 9.04688 53.3203 8.80469 52.9141C8.5625 52.5 8.24219 52.1367 7.84375 51.8242C7.45312 51.5039 7.00391 51.2148 6.49609 50.957C5.98828 50.6992 5.46875 50.4453 4.9375 50.1953C4.41406 49.9375 3.89844 49.6719 3.39062 49.3984C2.89062 49.1172 2.44531 48.7969 2.05469 48.4375C1.17188 47.625 0.730469 46.6367 0.730469 45.4727C0.730469 44.293 1.13281 43.2852 1.9375 42.4492C2.79688 41.5742 3.91016 41.0898 5.27734 40.9961V41.9688C4.30859 42.0938 3.65625 42.5898 3.32031 43.457C3.21094 43.7383 3.15625 44.0898 3.15625 44.5117C3.15625 44.9336 3.28125 45.3281 3.53125 45.6953C3.78125 46.0625 4.10938 46.3906 4.51562 46.6797C4.92188 46.9688 5.38281 47.2344 5.89844 47.4766C6.42188 47.7188 6.95312 47.9648 7.49219 48.2148C8.03906 48.4648 8.57031 48.7344 9.08594 49.0234C9.60938 49.3125 10.0742 49.6484 10.4805 50.0312C11.3867 50.8984 11.8398 51.9453 11.8398 53.1719C11.8398 54.5 11.3594 55.6562 10.3984 56.6406C9.39062 57.6875 8.125 58.2578 6.60156 58.3516V57.3672ZM24.4727 43.9375C24.4727 43.3594 24.4141 42.9883 24.2969 42.8242C24.1797 42.6523 24.0703 42.543 23.9688 42.4961C23.8672 42.4492 23.7578 42.4062 23.6406 42.3672C23.2578 42.2578 22.9883 42.1484 22.832 42.0391V41.3477H28.9844V42.0391C28.7734 42.1328 28.5703 42.207 28.375 42.2617C28.1875 42.3164 28.0195 42.3867 27.8711 42.4727C27.5508 42.6602 27.3906 43.0039 27.3906 43.5039V55.8438C27.3906 56.3438 27.5508 56.6875 27.8711 56.875C28.0195 56.9609 28.1875 57.0312 28.375 57.0859C28.5703 57.1406 28.7734 57.2148 28.9844 57.3086V58H22.832V57.3086C23.7383 57.1836 24.2617 56.7656 24.4023 56.0547C24.4492 55.8203 24.4727 55.5469 24.4727 55.2344V43.9375ZM18.4023 55.3398C18.4023 56.1914 18.5664 56.7031 18.8945 56.875C19.0039 56.9219 19.1836 56.9844 19.4336 57.0625C19.6914 57.1328 19.8945 57.2148 20.043 57.3086V58H13.9023V57.3086C14.1133 57.2148 14.3125 57.1406 14.5 57.0859C14.6875 57.0312 14.8555 56.9609 15.0039 56.875C15.3242 56.6875 15.4844 56.3438 15.4844 55.8438V43.5039C15.4844 43.0039 15.3242 42.6602 15.0039 42.4727C14.8555 42.3867 14.6875 42.3164 14.5 42.2617C14.3125 42.207 14.1133 42.1328 13.9023 42.0391V41.3477H20.043V42.0391C19.8633 42.1562 19.6484 42.25 19.3984 42.3203C19.1484 42.3906 18.9727 42.4531 18.8711 42.5078C18.7773 42.5547 18.6953 42.6367 18.625 42.7539C18.4766 43.0039 18.4023 43.4375 18.4023 44.0547V55.3398ZM23.5 49.8672H19.375V48.7891H23.5V49.8672ZM37.8086 58.3516C35.8086 58.2109 34.1562 57.3047 32.8516 55.6328C31.5859 54.0078 30.9531 52.0195 30.9531 49.668C30.9531 47.332 31.5859 45.3516 32.8516 43.7266C34.1562 42.0547 35.8086 41.1484 37.8086 41.0078V41.9688C36.6602 42.0859 35.7969 42.6953 35.2188 43.7969C34.5703 45.0625 34.2461 47.0195 34.2461 49.668C34.2461 53.5586 34.9453 55.9609 36.3438 56.875C36.7812 57.1562 37.2695 57.3242 37.8086 57.3789V58.3516ZM38.7812 57.3789C40.5312 57.1992 41.6328 55.8047 42.0859 53.1953C42.2578 52.2344 42.3438 51.0586 42.3438 49.668C42.3438 45.793 41.6445 43.3984 40.2461 42.4844C39.8086 42.2031 39.3203 42.0312 38.7812 41.9688V40.9961C40.7969 41.1367 42.4531 42.0391 43.75 43.7031C45.0234 45.3359 45.6602 47.3242 45.6602 49.668C45.6602 52.0117 45.0234 54 43.75 55.6328C42.4531 57.2969 40.7969 58.1992 38.7812 58.3398V57.3789ZM61.8672 52.4922C62.1875 51.4375 62.5469 50.2031 62.9453 48.7891C63.3516 47.3672 63.6328 46.3828 63.7891 45.8359C63.9453 45.2891 64.0859 44.7969 64.2109 44.3594C64.3438 43.9141 64.4102 43.5547 64.4102 43.2812C64.4102 43.0078 64.3633 42.8125 64.2695 42.6953C64.1836 42.5781 64.0664 42.4883 63.918 42.4258C63.7773 42.3555 63.6172 42.3008 63.4375 42.2617C63.2578 42.2148 63.0781 42.1562 62.8984 42.0859V41.3477H67.3867V42.0859C67.2773 42.1641 67.1523 42.2266 67.0117 42.2734C66.8789 42.3203 66.7461 42.375 66.6133 42.4375C66.2852 42.5781 66.0703 42.7578 65.9688 42.9766C65.8359 43.2812 65.6953 43.6875 65.5469 44.1953L62.4766 54.5781L61.8672 52.4922ZM62.043 56.0312L61.3867 58.2695H59.9219L56.7461 47.4883H56.6875L54.625 54.7539L54.0273 52.5859L55.6914 46.8203C55.7773 46.5156 55.8594 46.25 55.9375 46.0234C56.0156 45.7969 56.0703 45.582 56.1016 45.3789C55.9688 44.6055 55.8047 43.9766 55.6094 43.4922C55.4141 43 55.2578 42.7109 55.1406 42.625C55.0312 42.5312 54.9141 42.457 54.7891 42.4023C54.6641 42.3477 54.5391 42.3008 54.4141 42.2617C54.2891 42.2227 54.1797 42.1641 54.0859 42.0859V41.3477H59.6641V42.0859C59.5156 42.1562 59.3594 42.2109 59.1953 42.25C59.0312 42.2891 58.8789 42.3359 58.7383 42.3906C58.4102 42.5156 58.2461 42.6914 58.2461 42.918C58.2461 43.1445 58.2812 43.375 58.3516 43.6094C58.4297 43.8438 58.5234 44.1367 58.6328 44.4883L62.043 56.0312ZM54.2148 56.207L53.6289 58.2695H52.0938L47.8984 43.7734C47.6641 43.0156 47.4492 42.5859 47.2539 42.4844C47.1602 42.4297 47.0625 42.3828 46.9609 42.3438C46.6719 42.25 46.4961 42.1641 46.4336 42.0859V41.3477H51.9062V42.0859C51.7656 42.1641 51.6133 42.2266 51.4492 42.2734C51.293 42.3125 51.1484 42.3594 51.0156 42.4141C50.6875 42.5469 50.5234 42.7305 50.5234 42.9648C50.5234 43.1914 50.5625 43.418 50.6406 43.6445C50.7188 43.8711 50.7969 44.1211 50.875 44.3945L54.2148 56.207ZM79.9375 41.0195C80.5156 41.0742 81.0078 41.207 81.4141 41.418C81.8281 41.6289 82.1094 41.7773 82.2578 41.8633C82.4141 41.9492 82.543 41.9922 82.6445 41.9922C82.7539 41.9922 82.8438 41.9688 82.9141 41.9219C82.9844 41.875 83.0469 41.8203 83.1016 41.7578C83.1562 41.6953 83.2031 41.6289 83.2422 41.5586C83.2812 41.4805 83.3203 41.4102 83.3594 41.3477H84.4375V46.8438H83.5938C83.4219 46.6641 83.2266 46.2734 83.0078 45.6719C82.7891 45.0625 82.6016 44.5781 82.4453 44.2188C82.2969 43.8594 82.1094 43.5234 81.8828 43.2109C81.3828 42.5156 80.7344 42.1055 79.9375 41.9805V41.0195ZM77.5586 57.9414C77.0977 57.7305 76.7734 57.582 76.5859 57.4961C76.3984 57.4023 76.2031 57.3555 76 57.3555C75.8047 57.3555 75.5859 57.5703 75.3438 58H74.2539V52.2109H75.0625C75.2344 52.3906 75.3867 52.6367 75.5195 52.9492C75.6602 53.2617 75.8047 53.6016 75.9531 53.9688C76.1094 54.3281 76.2773 54.6992 76.457 55.082C76.6367 55.4648 76.8555 55.8203 77.1133 56.1484C77.6914 56.875 78.4258 57.2852 79.3164 57.3789V58.3398C78.6133 58.2773 78.0273 58.1445 77.5586 57.9414ZM80.2891 57.3672C81.1328 57.2656 81.7852 56.9219 82.2461 56.3359C82.6523 55.8125 82.8555 55.2148 82.8555 54.543C82.8555 53.8633 82.7344 53.3203 82.4922 52.9141C82.25 52.5 81.9297 52.1367 81.5312 51.8242C81.1406 51.5039 80.6914 51.2148 80.1836 50.957C79.6758 50.6992 79.1562 50.4453 78.625 50.1953C78.1016 49.9375 77.5859 49.6719 77.0781 49.3984C76.5781 49.1172 76.1328 48.7969 75.7422 48.4375C74.8594 47.625 74.418 46.6367 74.418 45.4727C74.418 44.293 74.8203 43.2852 75.625 42.4492C76.4844 41.5742 77.5977 41.0898 78.9648 40.9961V41.9688C77.9961 42.0938 77.3438 42.5898 77.0078 43.457C76.8984 43.7383 76.8438 44.0898 76.8438 44.5117C76.8438 44.9336 76.9688 45.3281 77.2188 45.6953C77.4688 46.0625 77.7969 46.3906 78.2031 46.6797C78.6094 46.9688 79.0703 47.2344 79.5859 47.4766C80.1094 47.7188 80.6406 47.9648 81.1797 48.2148C81.7266 48.4648 82.2578 48.7344 82.7734 49.0234C83.2969 49.3125 83.7617 49.6484 84.168 50.0312C85.0742 50.8984 85.5273 51.9453 85.5273 53.1719C85.5273 54.5 85.0469 55.6562 84.0859 56.6406C83.0781 57.6875 81.8125 58.2578 80.2891 58.3516V57.3672ZM95.9336 57.3906C97.5742 57.3203 98.6484 56.6797 99.1562 55.4688C99.3281 55.0703 99.4141 54.6094 99.4141 54.0859V43.6445C99.4141 42.9961 99.0312 42.543 98.2656 42.2852C98.0547 42.2148 97.8438 42.1328 97.6328 42.0391V41.3477H102.555V42.0391C102.344 42.1328 102.129 42.2148 101.91 42.2852C101.699 42.3555 101.508 42.4453 101.336 42.5547C100.945 42.7891 100.75 43.1523 100.75 43.6445V53.7227C100.75 56.5664 99.1445 58.1016 95.9336 58.3281V57.3906ZM94.9609 58.3633C92.0391 58.3633 90.1797 57.4531 89.3828 55.6328C89.1172 55.0312 88.9844 54.3398 88.9844 53.5586V43.5039C88.9844 43.0039 88.832 42.6602 88.5273 42.4727C88.3867 42.3867 88.2188 42.3164 88.0234 42.2617C87.8281 42.207 87.6172 42.1328 87.3906 42.0391V41.3477H93.5195V42.0391C93.2852 42.1328 93.0703 42.207 92.875 42.2617C92.6797 42.3164 92.5078 42.3867 92.3594 42.4727C92.0547 42.6523 91.9023 42.9961 91.9023 43.5039V54.1094C91.9023 55.0234 92.1797 55.7734 92.7344 56.3594C93.2656 56.9219 94.0078 57.2578 94.9609 57.3672V58.3633ZM113.863 45.707C113.863 43.3867 112.785 42.2266 110.629 42.2266C110.285 42.2266 109.98 42.25 109.715 42.2969V41.3477H110.734C113.797 41.3477 115.781 42.1445 116.688 43.7383C117.008 44.293 117.168 44.9219 117.168 45.625C117.168 46.3203 117.039 46.9375 116.781 47.4766C116.531 48.0156 116.152 48.4844 115.645 48.8828C114.551 49.7422 113.027 50.1719 111.074 50.1719H109.715V49.293C111.137 49.293 112.172 49.0391 112.82 48.5312C113.516 47.9688 113.863 47.0273 113.863 45.707ZM108.742 55.2109C108.742 55.75 108.762 56.1172 108.801 56.3125C108.848 56.5 108.938 56.6445 109.07 56.7461C109.203 56.8398 109.363 56.9141 109.551 56.9688C109.738 57.0156 109.941 57.0625 110.16 57.1094C110.379 57.1484 110.59 57.2148 110.793 57.3086V58H104.172V57.3086C104.305 57.2148 104.453 57.1484 104.617 57.1094C104.789 57.0703 104.953 57.0234 105.109 56.9688C105.484 56.8516 105.695 56.6328 105.742 56.3125C105.789 55.9844 105.812 55.6094 105.812 55.1875V44.1484C105.812 43.2812 105.711 42.7656 105.508 42.6016C105.344 42.4688 105.113 42.3672 104.816 42.2969C104.527 42.2188 104.312 42.1328 104.172 42.0391V41.3477H108.742V55.2109ZM128.277 45.707C128.277 43.3867 127.199 42.2266 125.043 42.2266C124.699 42.2266 124.395 42.25 124.129 42.2969V41.3477H125.148C128.211 41.3477 130.195 42.1445 131.102 43.7383C131.422 44.293 131.582 44.9219 131.582 45.625C131.582 46.3203 131.453 46.9375 131.195 47.4766C130.945 48.0156 130.566 48.4844 130.059 48.8828C128.965 49.7422 127.441 50.1719 125.488 50.1719H124.129V49.293C125.551 49.293 126.586 49.0391 127.234 48.5312C127.93 47.9688 128.277 47.0273 128.277 45.707ZM123.156 55.2109C123.156 55.75 123.176 56.1172 123.215 56.3125C123.262 56.5 123.352 56.6445 123.484 56.7461C123.617 56.8398 123.777 56.9141 123.965 56.9688C124.152 57.0156 124.355 57.0625 124.574 57.1094C124.793 57.1484 125.004 57.2148 125.207 57.3086V58H118.586V57.3086C118.719 57.2148 118.867 57.1484 119.031 57.1094C119.203 57.0703 119.367 57.0234 119.523 56.9688C119.898 56.8516 120.109 56.6328 120.156 56.3125C120.203 55.9844 120.227 55.6094 120.227 55.1875V44.1484C120.227 43.2812 120.125 42.7656 119.922 42.6016C119.758 42.4688 119.527 42.3672 119.23 42.2969C118.941 42.2188 118.727 42.1328 118.586 42.0391V41.3477H123.156V55.2109ZM139.809 58.3516C137.809 58.2109 136.156 57.3047 134.852 55.6328C133.586 54.0078 132.953 52.0195 132.953 49.668C132.953 47.332 133.586 45.3516 134.852 43.7266C136.156 42.0547 137.809 41.1484 139.809 41.0078V41.9688C138.66 42.0859 137.797 42.6953 137.219 43.7969C136.57 45.0625 136.246 47.0195 136.246 49.668C136.246 53.5586 136.945 55.9609 138.344 56.875C138.781 57.1562 139.27 57.3242 139.809 57.3789V58.3516ZM140.781 57.3789C142.531 57.1992 143.633 55.8047 144.086 53.1953C144.258 52.2344 144.344 51.0586 144.344 49.668C144.344 45.793 143.645 43.3984 142.246 42.4844C141.809 42.2031 141.32 42.0312 140.781 41.9688V40.9961C142.797 41.1367 144.453 42.0391 145.75 43.7031C147.023 45.3359 147.66 47.3242 147.66 49.668C147.66 52.0117 147.023 54 145.75 55.6328C144.453 57.2969 142.797 58.1992 140.781 58.3398V57.3789ZM155.734 41.3477C160.32 41.3477 162.613 42.7305 162.613 45.4961C162.613 46.6211 162.199 47.5586 161.371 48.3086C160.504 49.0898 159.324 49.5117 157.832 49.5742V49.6211C158.645 49.8164 159.273 50.2266 159.719 50.8516C159.953 51.1797 160.211 51.7031 160.492 52.4219C160.773 53.1328 160.996 53.6992 161.16 54.1211C161.324 54.5352 161.488 54.9102 161.652 55.2461C162.02 56.0039 162.344 56.3828 162.625 56.3828C162.742 56.3828 162.844 56.332 162.93 56.2305C163.016 56.1211 163.102 56 163.188 55.8672C163.43 55.5312 163.648 55.3633 163.844 55.3633C163.867 55.3633 163.922 55.3867 164.008 55.4336C164.094 55.4727 164.137 55.5547 164.137 55.6797C164.137 55.8047 164.109 55.9375 164.055 56.0781C163.609 56.7891 163.273 57.2539 163.047 57.4727C162.562 57.9492 162.023 58.1875 161.43 58.1875C160.844 58.1875 160.375 58.0938 160.023 57.9062C159.68 57.7188 159.391 57.4688 159.156 57.1562C158.922 56.8359 158.73 56.4688 158.582 56.0547C158.441 55.6406 158.312 55.207 158.195 54.7539C158.086 54.3008 157.977 53.8438 157.867 53.3828C157.758 52.9219 157.621 52.4844 157.457 52.0703C157.082 51.1406 156.562 50.5117 155.898 50.1836C155.734 50.0977 155.535 50.0078 155.301 49.9141V48.9531C157.512 48.9531 158.852 48.332 159.32 47.0898C159.477 46.6602 159.555 46.1523 159.555 45.5664C159.555 44.5117 159.246 43.6914 158.629 43.1055C158.012 42.5195 157.066 42.2266 155.793 42.2266C155.566 42.2266 155.402 42.2383 155.301 42.2617V41.3477H155.734ZM154.328 55.2109C154.328 55.7266 154.344 56.0898 154.375 56.3008C154.406 56.5117 154.477 56.6641 154.586 56.7578C154.703 56.8516 154.84 56.9258 154.996 56.9805C155.152 57.0273 155.316 57.0703 155.488 57.1094C155.66 57.1484 155.82 57.2148 155.969 57.3086V58H149.758V57.3086C149.875 57.2148 150.016 57.1484 150.18 57.1094C150.344 57.0703 150.508 57.0234 150.672 56.9688C151.062 56.8516 151.281 56.6328 151.328 56.3125C151.375 55.9844 151.398 55.6094 151.398 55.1875V44.1484C151.398 43.2812 151.297 42.7656 151.094 42.6016C150.93 42.4688 150.699 42.3672 150.402 42.2969C150.113 42.2188 149.898 42.1328 149.758 42.0391V41.3477H154.328V55.2109ZM172.832 41.3477V55.3164C172.832 55.9336 172.898 56.332 173.031 56.5117C173.164 56.6836 173.285 56.7969 173.395 56.8516C173.512 56.8984 173.641 56.9375 173.781 56.9688C174.18 57.0703 174.48 57.1836 174.684 57.3086V58H168.098V57.3086C168.27 57.1992 168.492 57.1094 168.766 57.0391C169.047 56.9609 169.242 56.8984 169.352 56.8516C169.469 56.8047 169.57 56.7266 169.656 56.6172C169.82 56.3828 169.902 55.9492 169.902 55.3164V41.3477H172.832ZM176.312 41.3477C176.633 41.3477 177.168 41.2891 177.918 41.1719V46.7148H177.121C177.012 46.418 176.914 46.1055 176.828 45.7773C176.75 45.4414 176.66 45.1133 176.559 44.793C176.457 44.4648 176.34 44.1523 176.207 43.8555C176.074 43.5508 175.902 43.2852 175.691 43.0586C175.223 42.5586 174.594 42.3086 173.805 42.3086V41.3477H176.312ZM164.852 41.1719C165.227 41.2891 165.512 41.3477 165.707 41.3477H168.93V42.3086C167.805 42.3086 167.008 42.8281 166.539 43.8672C166.312 44.3594 166.133 44.8867 166 45.4492C165.867 46.0039 165.75 46.4258 165.648 46.7148H164.828V41.1953L164.852 41.1719Z" fill="white"/>
</svg>
