<svg width="267" height="77" viewBox="0 0 267 77" fill="none" xmlns="http://www.w3.org/2000/svg">
<path d="M65.7266 2.46289C65.1641 2.46289 64.7422 2.50391 64.4609 2.58594V1.02148H66.2891C69.3711 1.02148 71.6914 1.60156 73.25 2.76172C74.6797 3.81641 75.3945 5.28711 75.3945 7.17383C75.3945 8.67383 74.8438 9.92773 73.7422 10.9355C72.6523 11.9316 71.1758 12.5352 69.3125 12.7461V12.8164C72.793 13.2852 75.0547 14.5391 76.0977 16.5781C76.4844 17.3047 76.6777 18.1602 76.6777 19.1445C76.6777 20.1172 76.5078 21.0195 76.168 21.8516C75.8281 22.6836 75.3008 23.4102 74.5859 24.0312C73.0508 25.3438 70.8184 26 67.8887 26H64.4609V24.4531C64.7188 24.5234 65.2461 24.5586 66.043 24.5586C68.0703 24.5586 69.5586 24.1484 70.5078 23.3281C71.457 22.5078 71.9316 21.1895 71.9316 19.373C71.9316 17.5566 71.416 16.1621 70.3848 15.1895C69.3652 14.2168 67.8125 13.7305 65.7266 13.7305H64.4609V12.1836H65.1289C68.7969 12.1836 70.6309 10.5254 70.6309 7.20898C70.6309 4.04492 68.9961 2.46289 65.7266 2.46289ZM63.002 26H56.1641V24.9629C56.4805 24.8223 56.7852 24.7109 57.0781 24.6289C57.3828 24.5469 57.6523 24.4414 57.8867 24.3125C58.3789 24.0312 58.625 23.5156 58.625 22.7656V4.25586C58.625 3.50586 58.3789 2.99023 57.8867 2.70898C57.6523 2.58008 57.3828 2.47461 57.0781 2.39258C56.7852 2.31055 56.4805 2.19922 56.1641 2.05859V1.02148H63.002V26ZM88.1211 16.209V18.5469H79.6309V16.209H88.1211ZM99.8984 0.529297C100.766 0.611328 101.504 0.810547 102.113 1.12695C102.734 1.44336 103.156 1.66602 103.379 1.79492C103.613 1.92383 103.807 1.98828 103.959 1.98828C104.123 1.98828 104.258 1.95312 104.363 1.88281C104.469 1.8125 104.562 1.73047 104.645 1.63672C104.727 1.54297 104.797 1.44336 104.855 1.33789C104.914 1.2207 104.973 1.11523 105.031 1.02148H106.648V9.26562H105.383C105.125 8.99609 104.832 8.41016 104.504 7.50781C104.176 6.59375 103.895 5.86719 103.66 5.32812C103.438 4.78906 103.156 4.28516 102.816 3.81641C102.066 2.77344 101.094 2.1582 99.8984 1.9707V0.529297ZM96.3301 25.9121C95.6387 25.5957 95.1523 25.373 94.8711 25.2441C94.5898 25.1035 94.2969 25.0332 93.9922 25.0332C93.6992 25.0332 93.3711 25.3555 93.0078 26H91.373V17.3164H92.5859C92.8438 17.5859 93.0723 17.9551 93.2715 18.4238C93.4824 18.8926 93.6992 19.4023 93.9219 19.9531C94.1562 20.4922 94.4082 21.0488 94.6777 21.623C94.9473 22.1973 95.2754 22.7305 95.6621 23.2227C96.5293 24.3125 97.6309 24.9277 98.9668 25.0684V26.5098C97.9121 26.416 97.0332 26.2168 96.3301 25.9121ZM100.426 25.0508C101.691 24.8984 102.67 24.3828 103.361 23.5039C103.971 22.7188 104.275 21.8223 104.275 20.8145C104.275 19.7949 104.094 18.9805 103.73 18.3711C103.367 17.75 102.887 17.2051 102.289 16.7363C101.703 16.2559 101.029 15.8223 100.268 15.4355C99.5059 15.0488 98.7266 14.668 97.9297 14.293C97.1445 13.9062 96.3711 13.5078 95.6094 13.0977C94.8594 12.6758 94.1914 12.1953 93.6055 11.6562C92.2812 10.4375 91.6191 8.95508 91.6191 7.20898C91.6191 5.43945 92.2227 3.92773 93.4297 2.67383C94.7188 1.36133 96.3887 0.634766 98.4395 0.494141V1.95312C96.9863 2.14063 96.0078 2.88477 95.5039 4.18555C95.3398 4.60742 95.2578 5.13477 95.2578 5.76758C95.2578 6.40039 95.4453 6.99219 95.8203 7.54297C96.1953 8.09375 96.6875 8.58594 97.2969 9.01953C97.9062 9.45312 98.5977 9.85156 99.3711 10.2148C100.156 10.5781 100.953 10.9473 101.762 11.3223C102.582 11.6973 103.379 12.1016 104.152 12.5352C104.938 12.9688 105.635 13.4727 106.244 14.0469C107.604 15.3477 108.283 16.918 108.283 18.7578C108.283 20.75 107.562 22.4844 106.121 23.9609C104.609 25.5312 102.711 26.3867 100.426 26.5273V25.0508ZM121.748 26.5273C118.748 26.3164 116.27 24.957 114.312 22.4492C112.414 20.0117 111.465 17.0293 111.465 13.502C111.465 9.99805 112.414 7.02734 114.312 4.58984C116.27 2.08203 118.748 0.722656 121.748 0.511719V1.95312C120.025 2.12891 118.73 3.04297 117.863 4.69531C116.891 6.59375 116.404 9.5293 116.404 13.502C116.404 19.3379 117.453 22.9414 119.551 24.3125C120.207 24.7344 120.939 24.9863 121.748 25.0684V26.5273ZM123.207 25.0684C125.832 24.7988 127.484 22.707 128.164 18.793C128.422 17.3516 128.551 15.5879 128.551 13.502C128.551 7.68945 127.502 4.09766 125.404 2.72656C124.748 2.30469 124.016 2.04687 123.207 1.95312V0.494141C126.23 0.705078 128.715 2.05859 130.66 4.55469C132.57 7.00391 133.525 9.98633 133.525 13.502C133.525 17.0176 132.57 20 130.66 22.4492C128.715 24.9453 126.23 26.2988 123.207 26.5098V25.0684ZM149.029 25.0859C151.49 24.9805 153.102 24.0195 153.863 22.2031C154.121 21.6055 154.25 20.9141 154.25 20.1289V4.4668C154.25 3.49414 153.676 2.81445 152.527 2.42773C152.211 2.32227 151.895 2.19922 151.578 2.05859V1.02148H158.961V2.05859C158.645 2.19922 158.322 2.32227 157.994 2.42773C157.678 2.5332 157.391 2.66797 157.133 2.83203C156.547 3.18359 156.254 3.72852 156.254 4.4668V19.584C156.254 23.8496 153.846 26.1523 149.029 26.4922V25.0859ZM147.57 26.5449C143.188 26.5449 140.398 25.1797 139.203 22.4492C138.805 21.5469 138.605 20.5098 138.605 19.3379V4.25586C138.605 3.50586 138.377 2.99023 137.92 2.70898C137.709 2.58008 137.457 2.47461 137.164 2.39258C136.871 2.31055 136.555 2.19922 136.215 2.05859V1.02148H145.408V2.05859C145.057 2.19922 144.734 2.31055 144.441 2.39258C144.148 2.47461 143.891 2.58008 143.668 2.70898C143.211 2.97852 142.982 3.49414 142.982 4.25586V20.1641C142.982 21.5352 143.398 22.6602 144.23 23.5391C145.027 24.3828 146.141 24.8867 147.57 25.0508V26.5449ZM179.158 16.6484V4.25586C179.158 3.62305 178.865 3.13672 178.279 2.79688C178.021 2.65625 177.729 2.52734 177.4 2.41016C177.084 2.29297 176.768 2.16406 176.451 2.02344V0.986328H183.799V2.02344C183.506 2.16406 183.201 2.29297 182.885 2.41016C182.58 2.52734 182.305 2.65625 182.059 2.79688C181.473 3.13672 181.18 3.62305 181.18 4.25586V19.8125L179.158 16.6484ZM165.535 7.33203V22.7305C165.535 23.375 165.84 23.8555 166.449 24.1719C166.719 24.3242 167.029 24.459 167.381 24.5762C167.744 24.6934 168.113 24.8223 168.488 24.9629V26H160.754V24.9629C161.082 24.8223 161.41 24.6934 161.738 24.5762C162.066 24.459 162.359 24.3242 162.617 24.1719C163.215 23.8438 163.514 23.3633 163.514 22.7305V4.69531L165.535 7.33203ZM165.605 5.15234C164.352 3.67578 163.098 2.75 161.844 2.375C161.516 2.26953 161.193 2.16406 160.877 2.05859V1.02148H167.732L181.18 22.291V26.1406H178.596L165.605 5.15234ZM199.461 2.86719C198.547 2.51562 197.65 2.33984 196.771 2.33984C195.904 2.33984 195.312 2.36914 194.996 2.42773V1.02148H196.719C200.469 1.02148 203.416 2.18164 205.561 4.50195C207.646 6.75195 208.689 9.75195 208.689 13.502C208.689 17.2637 207.646 20.2695 205.561 22.5195C203.416 24.8398 200.469 26 196.719 26H194.996V24.5762C195.465 24.6348 196.098 24.6641 196.895 24.6641C197.691 24.6641 198.547 24.4883 199.461 24.1367C200.387 23.7734 201.166 23.1641 201.799 22.3086C203.088 20.5508 203.732 17.6152 203.732 13.502C203.732 7.52539 202.309 3.98047 199.461 2.86719ZM193.537 26H186.418V24.9629C186.734 24.8223 187.039 24.7109 187.332 24.6289C187.637 24.5469 187.906 24.4414 188.141 24.3125C188.633 24.0312 188.879 23.5156 188.879 22.7656V4.25586C188.879 3.50586 188.633 2.99023 188.141 2.70898C187.906 2.58008 187.637 2.47461 187.332 2.39258C187.039 2.31055 186.734 2.19922 186.418 2.05859V1.02148H193.537V26ZM9.40625 50.5293C10.2734 50.6113 11.0117 50.8105 11.6211 51.127C12.2422 51.4434 12.6641 51.666 12.8867 51.7949C13.1211 51.9238 13.3145 51.9883 13.4668 51.9883C13.6309 51.9883 13.7656 51.9531 13.8711 51.8828C13.9766 51.8125 14.0703 51.7305 14.1523 51.6367C14.2344 51.543 14.3047 51.4434 14.3633 51.3379C14.4219 51.2207 14.4805 51.1152 14.5391 51.0215H16.1562V59.2656H14.8906C14.6328 58.9961 14.3398 58.4102 14.0117 57.5078C13.6836 56.5938 13.4023 55.8672 13.168 55.3281C12.9453 54.7891 12.6641 54.2852 12.3242 53.8164C11.5742 52.7734 10.6016 52.1582 9.40625 51.9707V50.5293ZM5.83789 75.9121C5.14648 75.5957 4.66016 75.373 4.37891 75.2441C4.09766 75.1035 3.80469 75.0332 3.5 75.0332C3.20703 75.0332 2.87891 75.3555 2.51562 76H0.880859V67.3164H2.09375C2.35156 67.5859 2.58008 67.9551 2.7793 68.4238C2.99023 68.8926 3.20703 69.4023 3.42969 69.9531C3.66406 70.4922 3.91602 71.0488 4.18555 71.623C4.45508 72.1973 4.7832 72.7305 5.16992 73.2227C6.03711 74.3125 7.13867 74.9277 8.47461 75.0684V76.5098C7.41992 76.416 6.54102 76.2168 5.83789 75.9121ZM9.93359 75.0508C11.1992 74.8984 12.1777 74.3828 12.8691 73.5039C13.4785 72.7188 13.7832 71.8223 13.7832 70.8145C13.7832 69.7949 13.6016 68.9805 13.2383 68.3711C12.875 67.75 12.3945 67.2051 11.7969 66.7363C11.2109 66.2559 10.5371 65.8223 9.77539 65.4355C9.01367 65.0488 8.23438 64.668 7.4375 64.293C6.65234 63.9062 5.87891 63.5078 5.11719 63.0977C4.36719 62.6758 3.69922 62.1953 3.11328 61.6562C1.78906 60.4375 1.12695 58.9551 1.12695 57.209C1.12695 55.4395 1.73047 53.9277 2.9375 52.6738C4.22656 51.3613 5.89648 50.6348 7.94727 50.4941V51.9531C6.49414 52.1406 5.51562 52.8848 5.01172 54.1855C4.84766 54.6074 4.76562 55.1348 4.76562 55.7676C4.76562 56.4004 4.95312 56.9922 5.32812 57.543C5.70312 58.0938 6.19531 58.5859 6.80469 59.0195C7.41406 59.4531 8.10547 59.8516 8.87891 60.2148C9.66406 60.5781 10.4609 60.9473 11.2695 61.3223C12.0898 61.6973 12.8867 62.1016 13.6602 62.5352C14.4453 62.9688 15.1426 63.4727 15.752 64.0469C17.1113 65.3477 17.791 66.918 17.791 68.7578C17.791 70.75 17.0703 72.4844 15.6289 73.9609C14.1172 75.5312 12.2188 76.3867 9.93359 76.5273V75.0508ZM36.7402 54.9062C36.7402 54.0391 36.6523 53.4824 36.4766 53.2363C36.3008 52.9785 36.1367 52.8145 35.9844 52.7441C35.832 52.6738 35.668 52.6094 35.4922 52.5508C34.918 52.3867 34.5137 52.2227 34.2793 52.0586V51.0215H43.5078V52.0586C43.1914 52.1992 42.8867 52.3105 42.5938 52.3926C42.3125 52.4746 42.0605 52.5801 41.8379 52.709C41.3574 52.9902 41.1172 53.5059 41.1172 54.2559V72.7656C41.1172 73.5156 41.3574 74.0312 41.8379 74.3125C42.0605 74.4414 42.3125 74.5469 42.5938 74.6289C42.8867 74.7109 43.1914 74.8223 43.5078 74.9629V76H34.2793V74.9629C35.6387 74.7754 36.4238 74.1484 36.6348 73.082C36.7051 72.7305 36.7402 72.3203 36.7402 71.8516V54.9062ZM27.6348 72.0098C27.6348 73.2871 27.8809 74.0547 28.373 74.3125C28.5371 74.3828 28.8066 74.4766 29.1816 74.5938C29.5684 74.6992 29.873 74.8223 30.0957 74.9629V76H20.8848V74.9629C21.2012 74.8223 21.5 74.7109 21.7812 74.6289C22.0625 74.5469 22.3145 74.4414 22.5371 74.3125C23.0176 74.0312 23.2578 73.5156 23.2578 72.7656V54.2559C23.2578 53.5059 23.0176 52.9902 22.5371 52.709C22.3145 52.5801 22.0625 52.4746 21.7812 52.3926C21.5 52.3105 21.2012 52.1992 20.8848 52.0586V51.0215H30.0957V52.0586C29.8262 52.2344 29.5039 52.375 29.1289 52.4805C28.7539 52.5859 28.4902 52.6797 28.3379 52.7617C28.1973 52.832 28.0742 52.9551 27.9688 53.1309C27.7461 53.5059 27.6348 54.1562 27.6348 55.082V72.0098ZM35.2812 63.8008H29.0938V62.1836H35.2812V63.8008ZM56.7441 76.5273C53.7441 76.3164 51.2656 74.957 49.3086 72.4492C47.4102 70.0117 46.4609 67.0293 46.4609 63.502C46.4609 59.998 47.4102 57.0273 49.3086 54.5898C51.2656 52.082 53.7441 50.7227 56.7441 50.5117V51.9531C55.0215 52.1289 53.7266 53.043 52.8594 54.6953C51.8867 56.5938 51.4004 59.5293 51.4004 63.502C51.4004 69.3379 52.4492 72.9414 54.5469 74.3125C55.2031 74.7344 55.9355 74.9863 56.7441 75.0684V76.5273ZM58.2031 75.0684C60.8281 74.7988 62.4805 72.707 63.1602 68.793C63.418 67.3516 63.5469 65.5879 63.5469 63.502C63.5469 57.6895 62.498 54.0977 60.4004 52.7266C59.7441 52.3047 59.0117 52.0469 58.2031 51.9531V50.4941C61.2266 50.7051 63.7109 52.0586 65.6562 54.5547C67.5664 57.0039 68.5215 59.9863 68.5215 63.502C68.5215 67.0176 67.5664 70 65.6562 72.4492C63.7109 74.9453 61.2266 76.2988 58.2031 76.5098V75.0684ZM92.832 67.7383C93.3125 66.1562 93.8516 64.3047 94.4492 62.1836C95.0586 60.0508 95.4805 58.5742 95.7148 57.7539C95.9492 56.9336 96.1602 56.1953 96.3477 55.5391C96.5469 54.8711 96.6465 54.332 96.6465 53.9219C96.6465 53.5117 96.5762 53.2188 96.4355 53.043C96.3066 52.8672 96.1309 52.7324 95.9082 52.6387C95.6973 52.5332 95.457 52.4512 95.1875 52.3926C94.918 52.3223 94.6484 52.2344 94.3789 52.1289V51.0215H101.111V52.1289C100.947 52.2461 100.76 52.3398 100.549 52.4102C100.35 52.4805 100.15 52.5625 99.9512 52.6562C99.459 52.8672 99.1367 53.1367 98.9844 53.4648C98.7852 53.9219 98.5742 54.5312 98.3516 55.293L93.7461 70.8672L92.832 67.7383ZM93.0957 73.0469L92.1113 76.4043H89.9141L85.1504 60.2324H85.0625L81.9688 71.1309L81.0723 67.8789L83.5684 59.2305C83.6973 58.7734 83.8203 58.375 83.9375 58.0352C84.0547 57.6953 84.1367 57.373 84.1836 57.0684C83.9844 55.9082 83.7383 54.9648 83.4453 54.2383C83.1523 53.5 82.918 53.0664 82.7422 52.9375C82.5781 52.7969 82.4023 52.6855 82.2148 52.6035C82.0273 52.5215 81.8398 52.4512 81.6523 52.3926C81.4648 52.334 81.3008 52.2461 81.1602 52.1289V51.0215H89.5273V52.1289C89.3047 52.2344 89.0703 52.3164 88.8242 52.375C88.5781 52.4336 88.3496 52.5039 88.1387 52.5859C87.6465 52.7734 87.4004 53.0371 87.4004 53.377C87.4004 53.7168 87.4531 54.0625 87.5586 54.4141C87.6758 54.7656 87.8164 55.2051 87.9805 55.7324L93.0957 73.0469ZM81.3535 73.3105L80.4746 76.4043H78.1719L71.8789 54.6602C71.5273 53.5234 71.2051 52.8789 70.9121 52.7266C70.7715 52.6445 70.625 52.5742 70.4727 52.5156C70.0391 52.375 69.7754 52.2461 69.6816 52.1289V51.0215H77.8906V52.1289C77.6797 52.2461 77.4512 52.3398 77.2051 52.4102C76.9707 52.4688 76.7539 52.5391 76.5547 52.6211C76.0625 52.8203 75.8164 53.0957 75.8164 53.4473C75.8164 53.7871 75.875 54.127 75.9922 54.4668C76.1094 54.8066 76.2266 55.1816 76.3438 55.5918L81.3535 73.3105ZM119.938 50.5293C120.805 50.6113 121.543 50.8105 122.152 51.127C122.773 51.4434 123.195 51.666 123.418 51.7949C123.652 51.9238 123.846 51.9883 123.998 51.9883C124.162 51.9883 124.297 51.9531 124.402 51.8828C124.508 51.8125 124.602 51.7305 124.684 51.6367C124.766 51.543 124.836 51.4434 124.895 51.3379C124.953 51.2207 125.012 51.1152 125.07 51.0215H126.688V59.2656H125.422C125.164 58.9961 124.871 58.4102 124.543 57.5078C124.215 56.5938 123.934 55.8672 123.699 55.3281C123.477 54.7891 123.195 54.2852 122.855 53.8164C122.105 52.7734 121.133 52.1582 119.938 51.9707V50.5293ZM116.369 75.9121C115.678 75.5957 115.191 75.373 114.91 75.2441C114.629 75.1035 114.336 75.0332 114.031 75.0332C113.738 75.0332 113.41 75.3555 113.047 76H111.412V67.3164H112.625C112.883 67.5859 113.111 67.9551 113.311 68.4238C113.521 68.8926 113.738 69.4023 113.961 69.9531C114.195 70.4922 114.447 71.0488 114.717 71.623C114.986 72.1973 115.314 72.7305 115.701 73.2227C116.568 74.3125 117.67 74.9277 119.006 75.0684V76.5098C117.951 76.416 117.072 76.2168 116.369 75.9121ZM120.465 75.0508C121.73 74.8984 122.709 74.3828 123.4 73.5039C124.01 72.7188 124.314 71.8223 124.314 70.8145C124.314 69.7949 124.133 68.9805 123.77 68.3711C123.406 67.75 122.926 67.2051 122.328 66.7363C121.742 66.2559 121.068 65.8223 120.307 65.4355C119.545 65.0488 118.766 64.668 117.969 64.293C117.184 63.9062 116.41 63.5078 115.648 63.0977C114.898 62.6758 114.23 62.1953 113.645 61.6562C112.32 60.4375 111.658 58.9551 111.658 57.209C111.658 55.4395 112.262 53.9277 113.469 52.6738C114.758 51.3613 116.428 50.6348 118.479 50.4941V51.9531C117.025 52.1406 116.047 52.8848 115.543 54.1855C115.379 54.6074 115.297 55.1348 115.297 55.7676C115.297 56.4004 115.484 56.9922 115.859 57.543C116.234 58.0938 116.727 58.5859 117.336 59.0195C117.945 59.4531 118.637 59.8516 119.41 60.2148C120.195 60.5781 120.992 60.9473 121.801 61.3223C122.621 61.6973 123.418 62.1016 124.191 62.5352C124.977 62.9688 125.674 63.4727 126.283 64.0469C127.643 65.3477 128.322 66.918 128.322 68.7578C128.322 70.75 127.602 72.4844 126.16 73.9609C124.648 75.5312 122.75 76.3867 120.465 76.5273V75.0508ZM143.932 75.0859C146.393 74.9805 148.004 74.0195 148.766 72.2031C149.023 71.6055 149.152 70.9141 149.152 70.1289V54.4668C149.152 53.4941 148.578 52.8145 147.43 52.4277C147.113 52.3223 146.797 52.1992 146.48 52.0586V51.0215H153.863V52.0586C153.547 52.1992 153.225 52.3223 152.896 52.4277C152.58 52.5332 152.293 52.668 152.035 52.832C151.449 53.1836 151.156 53.7285 151.156 54.4668V69.584C151.156 73.8496 148.748 76.1523 143.932 76.4922V75.0859ZM142.473 76.5449C138.09 76.5449 135.301 75.1797 134.105 72.4492C133.707 71.5469 133.508 70.5098 133.508 69.3379V54.2559C133.508 53.5059 133.279 52.9902 132.822 52.709C132.611 52.5801 132.359 52.4746 132.066 52.3926C131.773 52.3105 131.457 52.1992 131.117 52.0586V51.0215H140.311V52.0586C139.959 52.1992 139.637 52.3105 139.344 52.3926C139.051 52.4746 138.793 52.5801 138.57 52.709C138.113 52.9785 137.885 53.4941 137.885 54.2559V70.1641C137.885 71.5352 138.301 72.6602 139.133 73.5391C139.93 74.3828 141.043 74.8867 142.473 75.0508V76.5449ZM170.826 57.5605C170.826 54.0801 169.209 52.3398 165.975 52.3398C165.459 52.3398 165.002 52.375 164.604 52.4453V51.0215H166.133C170.727 51.0215 173.703 52.2168 175.062 54.6074C175.543 55.4395 175.783 56.3828 175.783 57.4375C175.783 58.4805 175.59 59.4062 175.203 60.2148C174.828 61.0234 174.26 61.7266 173.498 62.3242C171.857 63.6133 169.572 64.2578 166.643 64.2578H164.604V62.9395C166.736 62.9395 168.289 62.5586 169.262 61.7969C170.305 60.9531 170.826 59.541 170.826 57.5605ZM163.145 71.8164C163.145 72.625 163.174 73.1758 163.232 73.4688C163.303 73.75 163.438 73.9668 163.637 74.1191C163.836 74.2598 164.076 74.3711 164.357 74.4531C164.639 74.5234 164.943 74.5938 165.271 74.6641C165.6 74.7227 165.916 74.8223 166.221 74.9629V76H156.289V74.9629C156.488 74.8223 156.711 74.7227 156.957 74.6641C157.215 74.6055 157.461 74.5352 157.695 74.4531C158.258 74.2773 158.574 73.9492 158.645 73.4688C158.715 72.9766 158.75 72.4141 158.75 71.7812V55.2227C158.75 53.9219 158.598 53.1484 158.293 52.9023C158.047 52.7031 157.701 52.5508 157.256 52.4453C156.822 52.3281 156.5 52.1992 156.289 52.0586V51.0215H163.145V71.8164ZM192.447 57.5605C192.447 54.0801 190.83 52.3398 187.596 52.3398C187.08 52.3398 186.623 52.375 186.225 52.4453V51.0215H187.754C192.348 51.0215 195.324 52.2168 196.684 54.6074C197.164 55.4395 197.404 56.3828 197.404 57.4375C197.404 58.4805 197.211 59.4062 196.824 60.2148C196.449 61.0234 195.881 61.7266 195.119 62.3242C193.479 63.6133 191.193 64.2578 188.264 64.2578H186.225V62.9395C188.357 62.9395 189.91 62.5586 190.883 61.7969C191.926 60.9531 192.447 59.541 192.447 57.5605ZM184.766 71.8164C184.766 72.625 184.795 73.1758 184.854 73.4688C184.924 73.75 185.059 73.9668 185.258 74.1191C185.457 74.2598 185.697 74.3711 185.979 74.4531C186.26 74.5234 186.564 74.5938 186.893 74.6641C187.221 74.7227 187.537 74.8223 187.842 74.9629V76H177.91V74.9629C178.109 74.8223 178.332 74.7227 178.578 74.6641C178.836 74.6055 179.082 74.5352 179.316 74.4531C179.879 74.2773 180.195 73.9492 180.266 73.4688C180.336 72.9766 180.371 72.4141 180.371 71.7812V55.2227C180.371 53.9219 180.219 53.1484 179.914 52.9023C179.668 52.7031 179.322 52.5508 178.877 52.4453C178.443 52.3281 178.121 52.1992 177.91 52.0586V51.0215H184.766V71.8164ZM209.744 76.5273C206.744 76.3164 204.266 74.957 202.309 72.4492C200.41 70.0117 199.461 67.0293 199.461 63.502C199.461 59.998 200.41 57.0273 202.309 54.5898C204.266 52.082 206.744 50.7227 209.744 50.5117V51.9531C208.021 52.1289 206.727 53.043 205.859 54.6953C204.887 56.5938 204.4 59.5293 204.4 63.502C204.4 69.3379 205.449 72.9414 207.547 74.3125C208.203 74.7344 208.936 74.9863 209.744 75.0684V76.5273ZM211.203 75.0684C213.828 74.7988 215.48 72.707 216.16 68.793C216.418 67.3516 216.547 65.5879 216.547 63.502C216.547 57.6895 215.498 54.0977 213.4 52.7266C212.744 52.3047 212.012 52.0469 211.203 51.9531V50.4941C214.227 50.7051 216.711 52.0586 218.656 54.5547C220.566 57.0039 221.521 59.9863 221.521 63.502C221.521 67.0176 220.566 70 218.656 72.4492C216.711 74.9453 214.227 76.2988 211.203 76.5098V75.0684ZM233.633 51.0215C240.512 51.0215 243.951 53.0957 243.951 57.2441C243.951 58.9316 243.33 60.3379 242.088 61.4629C240.787 62.6348 239.018 63.2676 236.779 63.3613V63.4316C237.998 63.7246 238.941 64.3398 239.609 65.2773C239.961 65.7695 240.348 66.5547 240.77 67.6328C241.191 68.6992 241.525 69.5488 241.771 70.1816C242.018 70.8027 242.264 71.3652 242.51 71.8691C243.061 73.0059 243.547 73.5742 243.969 73.5742C244.145 73.5742 244.297 73.498 244.426 73.3457C244.555 73.1816 244.684 73 244.812 72.8008C245.176 72.2969 245.504 72.0449 245.797 72.0449C245.832 72.0449 245.914 72.0801 246.043 72.1504C246.172 72.209 246.236 72.332 246.236 72.5195C246.236 72.707 246.195 72.9062 246.113 73.1172C245.445 74.1836 244.941 74.8809 244.602 75.209C243.875 75.9238 243.066 76.2812 242.176 76.2812C241.297 76.2812 240.594 76.1406 240.066 75.8594C239.551 75.5781 239.117 75.2031 238.766 74.7344C238.414 74.2539 238.127 73.7031 237.904 73.082C237.693 72.4609 237.5 71.8105 237.324 71.1309C237.16 70.4512 236.996 69.7656 236.832 69.0742C236.668 68.3828 236.463 67.7266 236.217 67.1055C235.654 65.7109 234.875 64.7676 233.879 64.2754C233.633 64.1465 233.334 64.0117 232.982 63.8711V62.4297C236.299 62.4297 238.309 61.498 239.012 59.6348C239.246 58.9902 239.363 58.2285 239.363 57.3496C239.363 55.7676 238.9 54.5371 237.975 53.6582C237.049 52.7793 235.631 52.3398 233.721 52.3398C233.381 52.3398 233.135 52.3574 232.982 52.3926V51.0215H233.633ZM231.523 71.8164C231.523 72.5898 231.547 73.1348 231.594 73.4512C231.641 73.7676 231.746 73.9961 231.91 74.1367C232.086 74.2773 232.291 74.3887 232.525 74.4707C232.76 74.541 233.006 74.6055 233.264 74.6641C233.521 74.7227 233.762 74.8223 233.984 74.9629V76H224.668V74.9629C224.844 74.8223 225.055 74.7227 225.301 74.6641C225.547 74.6055 225.793 74.5352 226.039 74.4531C226.625 74.2773 226.953 73.9492 227.023 73.4688C227.094 72.9766 227.129 72.4141 227.129 71.7812V55.2227C227.129 53.9219 226.977 53.1484 226.672 52.9023C226.426 52.7031 226.08 52.5508 225.635 52.4453C225.201 52.3281 224.879 52.1992 224.668 52.0586V51.0215H231.523V71.8164ZM259.279 51.0215V71.9746C259.279 72.9004 259.379 73.498 259.578 73.7676C259.777 74.0254 259.959 74.1953 260.123 74.2773C260.299 74.3477 260.492 74.4062 260.703 74.4531C261.301 74.6055 261.752 74.7754 262.057 74.9629V76H252.178V74.9629C252.436 74.7988 252.77 74.6641 253.18 74.5586C253.602 74.4414 253.895 74.3477 254.059 74.2773C254.234 74.207 254.387 74.0898 254.516 73.9258C254.762 73.5742 254.885 72.9238 254.885 71.9746V51.0215H259.279ZM264.5 51.0215C264.98 51.0215 265.783 50.9336 266.908 50.7578V59.0723H265.713C265.549 58.627 265.402 58.1582 265.273 57.666C265.156 57.1621 265.021 56.6699 264.869 56.1895C264.717 55.6973 264.541 55.2285 264.342 54.7832C264.143 54.3262 263.885 53.9277 263.568 53.5879C262.865 52.8379 261.922 52.4629 260.738 52.4629V51.0215H264.5ZM247.309 50.7578C247.871 50.9336 248.299 51.0215 248.592 51.0215H253.426V52.4629C251.738 52.4629 250.543 53.2422 249.84 54.8008C249.5 55.5391 249.23 56.3301 249.031 57.1738C248.832 58.0059 248.656 58.6387 248.504 59.0723H247.273V50.793L247.309 50.7578Z" fill="white"/>
</svg>
